<svg xmlns="http://www.w3.org/2000/svg" viewBox="-5 -22 430 125"><path d="M38.683 3.895h1.911c12.343 0 18.096 6.603 20.5 24.212l3.822-.169L64.406 0H1.598L.979 27.938l3.678.169c.637-6.603 1.401-10.159 3.059-13.715 2.931-6.604 9.048-10.497 16.566-10.497h2.676v60.784c0 6.434-.382 8.466-1.91 9.99-1.275 1.185-3.824 1.693-6.756 1.693h-2.931v4.063H50.28v-4.063h-2.949c-2.913 0-5.48-.509-6.736-1.693-1.529-1.524-1.911-3.557-1.911-9.99V3.895" fill="#FFF"/><rect x="0" y="36.7" width="16.1" height="16.4" rx="1" fill="#FFF"/><rect x="49.3" y="36.7" width="16.1" height="16.4" rx="1" fill="#FFF"/><g transform="translate(-70,0)"><path d="M204.827 80.426l20.35-71.006v55.721c0 6.081-.346 8.218-1.726 9.697-1.036 1.15-3.437 1.644-6.099 1.644h-1.035v3.944h28.765v-3.944h-1.497c-2.646 0-5.062-.493-6.097-1.644-1.382-1.479-1.727-3.616-1.727-9.697V17.639c0-6.082.345-8.383 1.727-9.862 1.15-.986 3.451-1.644 6.097-1.644h1.497V2.352h-22.321l-16.799 57.364-16.437-57.364h-22.206v3.781h2.07c6.099 0 7.249 1.315 7.249 9.205v45.2c0 7.232-.345 10.191-1.381 12.328-1.15 2.137-3.583 3.616-6.098 3.616h-1.841v3.944h23.701v-3.944h-1.495c-2.991 0-5.408-1.151-6.805-3.452-1.364-2.301-1.709-4.438-1.709-12.492V9.421l20.233 71.006h3.584m64.991-55.557c-14.267 0-23.586 11.177-23.586 28.765 0 16.93 9.319 28.436 23.226 28.436 14.035 0 23.355-11.506 23.355-28.6 0-16.931-9.32-28.601-22.995-28.601m-.46 3.78c4.126 0 7.692 2.63 9.648 7.068 1.841 4.109 2.646 9.698 2.646 17.752 0 16.6-4.027 24.818-12.195 24.818-8.153 0-12.082-8.219-12.082-24.983 0-7.89.821-13.478 2.662-17.587 1.826-4.273 5.524-7.068 9.321-7.068m42.571-27.12l-16.339.822v3.616h.789c4.833 0 5.885 1.644 5.885 9.369v53.419c0 6.903-.23 8.712-1.15 11.67h3.797c2.859-4.767 3.566-5.588 4.717-5.588.559 0 1.117.164 1.94.986 5.653 4.602 8.069 5.588 13.247 5.588 12.409 0 21.384-11.999 21.384-29.093 0-16.108-8.301-26.956-20.71-26.956-6.443 0-11.144 3.123-13.56 8.711V1.53m11.933 27.942c7.381 0 11.177 7.89 11.177 23.34 0 16.272-3.912 24.655-11.391 24.655-8.284 0-12.641-8.548-12.641-24.162 0-7.89 1.037-13.313 3.453-17.423 2.169-3.944 5.868-6.41 9.402-6.41m43.623-3.78l-16.782.986v3.616h1.266c4.815 0 5.852 1.644 5.852 9.205v27.778c0 7.562-1.036 9.37-5.852 9.37h-1.825v3.779h25.051v-3.779h-1.809c-4.849 0-5.9-1.645-5.9-9.37V25.692M396.593 1.53l-16.782.822v3.616h1.251c4.832 0 5.867 1.644 5.867 9.369v51.939c0 7.726-1.035 9.37-5.867 9.37h-1.825v3.779h25.065v-3.779h-1.841c-4.849 0-5.868-1.645-5.868-9.37V1.53m53.487 51.611c-.56-17.423-8.844-28.271-21.368-28.271-12.098 0-20.826 11.834-20.826 28.271 0 17.587 8.613 28.929 21.96 28.929 8.629 0 14.612-4.603 19.56-14.794l-3.451-1.808c-4.027 8.547-8.054 11.999-14.268 11.999-9.089 0-12.984-7.231-13.101-24.326h31.494m-31.378-4.11c.099-12.327 4.108-20.052 10.568-20.052 6.443 0 10.239 7.561 10.125 20.052h-20.693" fill="#FFF"/><ellipse ry="6.4925" rx="6.328" cy="8.1865" cx="361.864" fill="#FFF"/></g></svg>
